<svg viewBox="0 0 32 32" xmlns="http://www.w3.org/2000/svg">
  <rect x="3" y="9" width="26" height="16" rx="1.5" ry="1.5" fill="#1c1c1a" stroke="#c8c8c8" stroke-width="1"/>
  <rect x="5" y="11" width="4" height="3" rx=".5" fill="#c8c6c4" stroke="#3a3a38" stroke-width=".5"/>
  <rect x="10" y="11" width="4" height="3" rx=".5" fill="#c8c6c4" stroke="#3a3a38" stroke-width=".5"/>
  <rect x="15" y="11" width="4" height="3" rx=".5" fill="#c8c6c4" stroke="#3a3a38" stroke-width=".5"/>
  <rect x="20" y="11" width="4" height="3" rx=".5" fill="#c8c6c4" stroke="#3a3a38" stroke-width=".5"/>
  <rect x="25" y="11" width="2" height="3" rx=".5" fill="#c8c6c4" stroke="#3a3a38" stroke-width=".5"/>
  <rect x="5" y="15" width="3" height="3" rx=".5" fill="#c8c6c4" stroke="#3a3a38" stroke-width=".5"/>
  <rect x="9" y="15" width="4" height="3" rx=".5" fill="#c8c6c4" stroke="#3a3a38" stroke-width=".5"/>
  <rect x="14" y="15" width="4" height="3" rx=".5" fill="#1e8bcd" stroke="#3a3a38" stroke-width=".5"/>
  <rect x="19" y="15" width="4" height="3" rx=".5" fill="#c8c6c4" stroke="#3a3a38" stroke-width=".5"/>
  <rect x="24" y="15" width="3" height="3" rx=".5" fill="#c8c6c4" stroke="#3a3a38" stroke-width=".5"/>
  <rect x="5" y="19" width="3" height="3" rx=".5" fill="#c8c6c4" stroke="#3a3a38" stroke-width=".5"/>
  <rect x="9" y="19" width="14" height="3" rx=".5" fill="#c8c6c4" stroke="#3a3a38" stroke-width=".5"/>
  <rect x="24" y="19" width="3" height="3" rx=".5" fill="#c8c6c4" stroke="#3a3a38" stroke-width=".5"/>
</svg>
